<svg xmlns="http://www.w3.org/2000/svg" viewBox="0 0 1200 760" role="img" aria-label="Premium finance academy visual">
  <defs>
    <linearGradient id="bg" x1="0" y1="0" x2="1" y2="1"><stop offset="0" stop-color="#07111f"/><stop offset=".58" stop-color="#0A2540"/><stop offset="1" stop-color="#020617"/></linearGradient>
    <linearGradient id="gold" x1="0" y1="0" x2="1" y2="1"><stop offset="0" stop-color="#F5D76E"/><stop offset="1" stop-color="#B98B2E"/></linearGradient>
    <pattern id="grid" width="52" height="52" patternUnits="userSpaceOnUse"><path d="M52 0H0V52" fill="none" stroke="#94A3B8" stroke-opacity=".08"/></pattern>
    <filter id="glow"><feGaussianBlur stdDeviation="18" result="b"/><feMerge><feMergeNode in="b"/><feMergeNode in="SourceGraphic"/></feMerge></filter>
  </defs>
  <rect width="1200" height="760" rx="44" fill="url(#bg)"/>
  <rect width="1200" height="760" rx="44" fill="url(#grid)"/>
  <circle cx="250" cy="140" r="180" fill="#D4AF37" opacity=".09" filter="url(#glow)"/>
  <circle cx="990" cy="630" r="190" fill="#38BDF8" opacity=".07" filter="url(#glow)"/>
  <rect x="86" y="82" width="1028" height="596" rx="36" fill="#07111f" opacity=".7" stroke="#fff" stroke-opacity=".08"/>
  <rect x="128" y="126" width="374" height="468" rx="30" fill="#fff" opacity=".045" stroke="#D4AF37" stroke-opacity=".22"/>
  <circle cx="315" cy="216" r="76" fill="url(#gold)" opacity=".18"/>
  <path d="M250 214l65-31 65 31-65 31-65-31z" fill="none" stroke="#D4AF37" stroke-width="8" stroke-linejoin="round"/>
  <path d="M282 237v44c0 20 66 20 66 0v-44" fill="none" stroke="#D4AF37" stroke-width="8" stroke-linecap="round"/>
  <g>
    <rect x="164" y="344" width="302" height="22" rx="11" fill="#fff" opacity=".16"/><rect x="164" y="344" width="222" height="22" rx="11" fill="url(#gold)" opacity=".88"/>
    <rect x="164" y="404" width="302" height="22" rx="11" fill="#fff" opacity=".16"/><rect x="164" y="404" width="178" height="22" rx="11" fill="url(#gold)" opacity=".72"/>
    <rect x="164" y="464" width="302" height="22" rx="11" fill="#fff" opacity=".16"/><rect x="164" y="464" width="126" height="22" rx="11" fill="url(#gold)" opacity=".58"/>
  </g>
  <rect x="548" y="126" width="520" height="286" rx="30" fill="#020617" opacity=".56" stroke="#fff" stroke-opacity=".08"/>
  <g stroke="#94A3B8" stroke-opacity=".12"><path d="M586 188H1030M586 244H1030M586 300H1030M586 356H1030"/><path d="M650 156V374M730 156V374M810 156V374M890 156V374M970 156V374"/></g>
  <path d="M610 336 C690 282 740 314 806 238 C872 162 930 196 1008 156" fill="none" stroke="#D4AF37" stroke-width="5" stroke-linecap="round"/>
  <g fill="#D4AF37"><rect x="642" y="272" width="18" height="58" rx="5"/><rect x="754" y="238" width="18" height="72" rx="5"/><rect x="866" y="194" width="18" height="76" rx="5"/><rect x="978" y="154" width="18" height="84" rx="5"/></g>
  <g fill="#94A3B8"><rect x="698" y="260" width="18" height="86" rx="5"/><rect x="810" y="218" width="18" height="62" rx="5"/><rect x="922" y="176" width="18" height="92" rx="5"/></g>
  <rect x="548" y="452" width="156" height="112" rx="26" fill="#fff" opacity=".045" stroke="#D4AF37" stroke-opacity=".18"/>
  <rect x="730" y="452" width="156" height="112" rx="26" fill="#fff" opacity=".045" stroke="#D4AF37" stroke-opacity=".18"/>
  <rect x="912" y="452" width="156" height="112" rx="26" fill="#fff" opacity=".045" stroke="#D4AF37" stroke-opacity=".18"/>
  <path d="M594 507h64M594 532h42" stroke="#E2E8F0" stroke-opacity=".5" stroke-width="11" stroke-linecap="round"/>
  <path d="M776 507h64M776 532h42" stroke="#E2E8F0" stroke-opacity=".5" stroke-width="11" stroke-linecap="round"/>
  <path d="M958 507h64M958 532h42" stroke="#E2E8F0" stroke-opacity=".5" stroke-width="11" stroke-linecap="round"/>
  <circle cx="626" cy="474" r="16" fill="#D4AF37" opacity=".85"/><circle cx="808" cy="474" r="16" fill="#38BDF8" opacity=".55"/><circle cx="990" cy="474" r="16" fill="#22C55E" opacity=".65"/>
</svg>