<svg xmlns="http://www.w3.org/2000/svg" viewBox="0 0 1200 760" role="img" aria-label="Premium financial dashboard visual">
  <defs>
    <linearGradient id="bg" x1="0" y1="0" x2="1" y2="1"><stop offset="0" stop-color="#07111f"/><stop offset="0.55" stop-color="#0A2540"/><stop offset="1" stop-color="#020617"/></linearGradient>
    <linearGradient id="gold" x1="0" y1="0" x2="1" y2="1"><stop offset="0" stop-color="#F5D76E"/><stop offset="1" stop-color="#B98B2E"/></linearGradient>
    <linearGradient id="blue" x1="0" y1="0" x2="1" y2="1"><stop offset="0" stop-color="#38BDF8" stop-opacity=".55"/><stop offset="1" stop-color="#1E3A8A" stop-opacity=".12"/></linearGradient>
    <filter id="glow" x="-50%" y="-50%" width="200%" height="200%"><feGaussianBlur stdDeviation="18" result="b"/><feMerge><feMergeNode in="b"/><feMergeNode in="SourceGraphic"/></feMerge></filter>
    <pattern id="grid" width="48" height="48" patternUnits="userSpaceOnUse"><path d="M48 0H0V48" fill="none" stroke="#94A3B8" stroke-opacity=".08"/></pattern>
  </defs>
  <rect width="1200" height="760" rx="44" fill="url(#bg)"/>
  <rect width="1200" height="760" rx="44" fill="url(#grid)"/>
  <circle cx="1010" cy="110" r="190" fill="#D4AF37" opacity=".09" filter="url(#glow)"/>
  <circle cx="245" cy="650" r="210" fill="#38BDF8" opacity=".08" filter="url(#glow)"/>
  <rect x="76" y="78" width="1048" height="604" rx="34" fill="#07111f" opacity=".72" stroke="#FFFFFF" stroke-opacity=".08"/>
  <rect x="112" y="116" width="650" height="392" rx="28" fill="#020617" opacity=".62" stroke="#D4AF37" stroke-opacity=".22"/>
  <path d="M148 440 C245 390 306 414 386 322 C458 239 532 255 612 182 C662 136 697 130 728 116" fill="none" stroke="url(#gold)" stroke-width="5" stroke-linecap="round"/>
  <path d="M148 464 C245 414 306 438 386 346 C458 263 532 279 612 206 C662 160 697 154 728 140 L728 470 H148Z" fill="url(#gold)" opacity=".10"/>
  <g stroke="#94A3B8" stroke-opacity=".10"><path d="M148 170H728M148 230H728M148 290H728M148 350H728M148 410H728"/><path d="M210 136V470M310 136V470M410 136V470M510 136V470M610 136V470M710 136V470"/></g>
  <g>
    <g fill="url(#gold)"><rect x="188" y="330" width="18" height="68" rx="5"/><rect x="275" y="268" width="18" height="84" rx="5"/><rect x="362" y="288" width="18" height="58" rx="5"/><rect x="536" y="198" width="18" height="74" rx="5"/><rect x="623" y="156" width="18" height="82" rx="5"/></g>
    <g fill="#94A3B8"><rect x="232" y="300" width="18" height="92" rx="5"/><rect x="319" y="248" width="18" height="68" rx="5"/><rect x="449" y="238" width="18" height="104" rx="5"/><rect x="493" y="226" width="18" height="66" rx="5"/><rect x="667" y="130" width="18" height="78" rx="5"/></g>
    <g stroke-width="3" stroke-linecap="round"><path d="M197 300V416" stroke="#D4AF37"/><path d="M241 270V408" stroke="#94A3B8"/><path d="M284 232V370" stroke="#D4AF37"/><path d="M328 220V334" stroke="#94A3B8"/><path d="M371 250V366" stroke="#D4AF37"/><path d="M458 210V360" stroke="#94A3B8"/><path d="M502 192V314" stroke="#94A3B8"/><path d="M545 172V292" stroke="#D4AF37"/><path d="M632 124V252" stroke="#D4AF37"/><path d="M676 104V226" stroke="#94A3B8"/></g>
  </g>
  <rect x="800" y="116" width="282" height="120" rx="26" fill="#FFFFFF" opacity=".045" stroke="#FFFFFF" stroke-opacity=".08"/>
  <rect x="800" y="262" width="282" height="120" rx="26" fill="#FFFFFF" opacity=".045" stroke="#FFFFFF" stroke-opacity=".08"/>
  <rect x="800" y="408" width="282" height="120" rx="26" fill="#FFFFFF" opacity=".045" stroke="#FFFFFF" stroke-opacity=".08"/>
  <circle cx="850" cy="176" r="28" fill="url(#gold)" opacity=".9"/><circle cx="850" cy="322" r="28" fill="url(#blue)" opacity=".9"/><circle cx="850" cy="468" r="28" fill="#22C55E" opacity=".75"/>
  <rect x="900" y="154" width="138" height="14" rx="7" fill="#E2E8F0" opacity=".64"/><rect x="900" y="184" width="90" height="12" rx="6" fill="#94A3B8" opacity=".36"/>
  <rect x="900" y="300" width="138" height="14" rx="7" fill="#E2E8F0" opacity=".64"/><rect x="900" y="330" width="110" height="12" rx="6" fill="#94A3B8" opacity=".36"/>
  <rect x="900" y="446" width="138" height="14" rx="7" fill="#E2E8F0" opacity=".64"/><rect x="900" y="476" width="78" height="12" rx="6" fill="#94A3B8" opacity=".36"/>
  <rect x="112" y="540" width="212" height="88" rx="22" fill="#FFFFFF" opacity=".045" stroke="#D4AF37" stroke-opacity=".18"/>
  <rect x="350" y="540" width="212" height="88" rx="22" fill="#FFFFFF" opacity=".045" stroke="#D4AF37" stroke-opacity=".18"/>
  <rect x="588" y="540" width="212" height="88" rx="22" fill="#FFFFFF" opacity=".045" stroke="#D4AF37" stroke-opacity=".18"/>
  <rect x="826" y="540" width="212" height="88" rx="22" fill="#FFFFFF" opacity=".045" stroke="#D4AF37" stroke-opacity=".18"/>
  <g fill="#D4AF37" opacity=".82"><circle cx="150" cy="584" r="13"/><circle cx="388" cy="584" r="13"/><circle cx="626" cy="584" r="13"/><circle cx="864" cy="584" r="13"/></g>
  <g fill="#E2E8F0" opacity=".46"><rect x="180" y="574" width="100" height="11" rx="6"/><rect x="418" y="574" width="96" height="11" rx="6"/><rect x="656" y="574" width="92" height="11" rx="6"/><rect x="894" y="574" width="98" height="11" rx="6"/></g>
</svg>